HIERARCHY
ROOT pelvis
{
	OFFSET 0.000000 0.000000 0.000000
	CHANNELS 6 Xposition Yposition Zposition Zrotation Xrotation Yrotation
	JOINT lfemur
	{
		OFFSET 11.446000 0.000000 0.000000
		CHANNELS 3 Zrotation Xrotation Yrotation
		JOINT ltibia
		{
			OFFSET 0.000000 -42.030400 0.000000
			CHANNELS 3 Zrotation Xrotation Yrotation
			JOINT lfoot
			{
				OFFSET 0.000000 -39.930200 0.000000
				CHANNELS 3 Zrotation Xrotation Yrotation
				JOINT ltoes
				{
					OFFSET 0.000000 0.000000 11.775800
					CHANNELS 3 Zrotation Xrotation Yrotation
					End Site
					{
					    OFFSET 0.000000 0.000000 5.000000
					}
				}
			}
		}
	}
	JOINT rfemur
	{
		OFFSET -11.446000 0.000000 0.000000
		CHANNELS 3 Zrotation Xrotation Yrotation
		JOINT rtibia
		{
			OFFSET 0.000000 -42.030400 0.000000
			CHANNELS 3 Zrotation Xrotation Yrotation
			JOINT rfoot
			{
				OFFSET 0.000000 -39.930200 0.000000
				CHANNELS 3 Zrotation Xrotation Yrotation
				JOINT rtoes
				{
					OFFSET 0.000000 0.000000 11.775800
					CHANNELS 3 Zrotation Xrotation Yrotation
					End Site
					{
					    OFFSET 0.000000 0.000000 5.000000
					}
				}
			}
		}
	}
	JOINT thorax
	{
		OFFSET 0.000000 11.255600 -5.000000
		CHANNELS 3 Zrotation Xrotation Yrotation
		JOINT head
		{
			OFFSET 0.000000 43.799300 0.000000
			CHANNELS 3 Zrotation Xrotation Yrotation
			End Site
			{
			    OFFSET 0.000000 5.000000 0.000000
			}
		}
		JOINT lclavicle
		{
			OFFSET 0.000000 39.863000 0.000000
			CHANNELS 3 Zrotation Xrotation Yrotation
			JOINT lhumerus
			{
				OFFSET 17.380600 4.958300 0.000000
				CHANNELS 3 Zrotation Xrotation Yrotation
				JOINT lradius
				{
					OFFSET 0.000000 -27.561300 0.000000
					CHANNELS 3 Zrotation Xrotation Yrotation
					JOINT lhand
					{
						OFFSET 0.000000 -26.933000 0.000000
						CHANNELS 3 Zrotation Xrotation Yrotation
						End Site
						{
						    OFFSET 0.000000 -5.000000 0.000000
						}
					}
				}
			}
		}
		JOINT rclavicle
		{
			OFFSET 0.000000 39.863000 0.000000
			CHANNELS 3 Zrotation Xrotation Yrotation
			JOINT rhumerus
			{
				OFFSET -17.380600 4.958300 0.000000
				CHANNELS 3 Zrotation Xrotation Yrotation
				JOINT rradius
				{
					OFFSET 0.000000 -27.561300 0.000000
					CHANNELS 3 Zrotation Xrotation Yrotation
					JOINT rhand
					{
						OFFSET 0.000000 -26.933000 0.000000
						CHANNELS 3 Zrotation Xrotation Yrotation
						End Site
						{
						    OFFSET 0.000000 -5.000000 0.000000
						}
					}
				}
			}
		}
	}
}
MOTION
Frames:	10
Frame Time:	0.0333333
53.153800 87.606300 4.641600 -1.383388 -2.801920 -90.910190 -6.056660 -5.155357 -3.764195 -0.000000 16.987738 0.000000 -0.000000 4.676397 7.392399 0.000000 -1.411665 -0.000000 -0.928048 -1.434604 -5.089286 -0.000000 17.479527 -0.000000 -0.000000 0.406721 -2.196947 -0.000000 -29.541869 0.000000 -5.529169 1.652830 0.292180 18.010259 24.058836 -2.546331 3.781391 -0.000000 4.079412 84.851030 -5.497514 66.756935 0.000000 -12.922191 -59.925804 10.425820 0.841519 -0.000000 -4.542362 0.000000 -1.686096 -78.933165 5.084677 -66.414578 0.000002 -22.071756 41.585207 -14.424908 1.486590 -0.000000 
53.157400 87.604800 4.677300 -1.298348 -2.725705 -90.840199 -6.040816 -5.212521 -3.916681 -0.000000 16.928655 -0.000000 -0.000000 4.565224 7.512405 -0.000000 -1.402850 0.000000 -0.856699 -1.385236 -5.131679 -0.000000 17.231060 -0.000000 -0.000000 0.480439 -2.208444 -0.000000 -29.541947 -0.000000 -5.528289 1.723214 0.188351 18.125880 23.727804 -2.610903 3.819170 -0.000000 4.131296 84.866035 -5.571967 66.858705 0.000001 -12.901015 -60.282045 10.339825 0.760576 -0.000000 -4.519089 -0.000000 -1.795583 -78.915068 4.985134 -66.625560 -0.000000 -21.961988 41.202651 -14.796780 1.612206 0.000000 
53.137300 87.608300 4.741000 -1.282956 -2.755137 -90.889462 -6.103832 -5.081137 -3.914723 0.000000 16.696922 0.000000 0.000000 4.525355 7.527506 -0.000000 -1.399490 -0.000000 -0.972804 -1.425529 -5.342213 -0.000000 17.288247 0.000000 0.000000 0.419495 -2.005278 0.000000 -29.541988 -0.000000 -5.609812 1.790949 0.118099 18.139409 23.641129 -2.493174 3.762479 -0.000000 4.248499 85.003010 -5.687804 66.896180 0.000000 -12.827102 -59.744664 10.347831 0.861218 0.000000 -4.399519 -0.000000 -1.742657 -78.978010 5.088804 -66.377660 0.000000 -21.973685 41.086088 -14.299049 1.443265 -0.000000 
53.120000 87.606200 4.808100 -1.246697 -2.787020 -90.996220 -6.151249 -5.003823 -3.831652 -0.000000 16.522545 -0.000000 0.000000 4.553029 7.445782 0.000000 -1.399693 -0.000000 -1.065292 -1.573165 -5.304143 -0.000000 17.497075 -0.000000 -0.000000 0.407927 -1.933121 -0.000000 -29.542784 -0.000000 -5.653929 1.816257 0.161190 18.117596 23.597674 -2.398668 3.855247 0.000000 3.966428 84.693130 -5.181053 66.722757 0.000001 -13.259168 -59.324378 10.208127 1.078314 0.000000 -4.342041 -0.000000 -1.818619 -79.140674 4.934288 -66.761472 -0.000001 -21.746506 41.340151 -15.021909 1.691982 0.000000 
53.069400 87.602500 4.900400 -1.180001 -2.822170 -91.042691 -6.236704 -4.926966 -3.777866 -0.000000 16.326269 -0.000000 0.000000 4.560738 7.434332 0.000000 -1.399624 -0.000000 -1.167195 -1.663552 -5.288720 -0.000000 17.595491 0.000000 -0.000000 0.383682 -1.853679 -0.000000 -29.542384 -0.000000 -5.652896 1.766679 0.178184 17.969431 23.575180 -2.151213 3.878435 -0.000000 3.773404 84.533897 -4.899123 66.586367 -0.000000 -13.292096 -59.460681 10.480396 1.091340 -0.000000 -4.431368 -0.000000 -1.868511 -78.991721 4.839481 -67.166084 0.000002 -22.019010 41.064655 -14.224276 1.419552 -0.000000 
52.998200 87.610600 5.011100 -1.110186 -2.810560 -91.110068 -6.341852 -4.765970 -4.066230 0.000000 15.982839 -0.000000 0.000000 4.508907 7.782891 -0.000000 -1.393141 -0.000000 -1.213395 -1.647721 -5.167483 -0.000000 17.510911 -0.000000 0.000000 0.416585 -1.860145 0.000000 -29.542326 -0.000000 -5.570949 1.650322 0.199906 17.723600 23.677059 -1.999124 3.955162 -0.000000 3.773614 84.184822 -4.914761 66.534047 0.000001 -13.345531 -59.365801 10.866178 1.110605 0.000000 -4.308417 -0.000000 -1.885742 -79.136085 4.934176 -66.817805 0.000000 -22.156167 41.052655 -14.298428 1.443843 -0.000000 
52.916400 87.616600 5.114200 -1.077148 -2.814989 -91.153766 -6.401939 -4.682238 -4.009313 -0.000000 15.870283 0.000000 0.000000 4.525321 7.730391 0.000000 -1.389377 -0.000000 -1.260038 -1.613029 -4.918443 -0.000000 17.463343 -0.000000 0.000000 0.483598 -2.042188 -0.000000 -29.542483 -0.000000 -5.491371 1.613729 0.276955 17.503697 23.726960 -1.905983 3.990908 -0.000000 3.912535 83.930061 -5.261663 67.027753 -0.000000 -13.236736 -59.171064 10.690189 1.138679 0.000000 -4.086758 -0.000000 -2.036710 -79.407734 4.852282 -66.854176 -0.000002 -21.979827 41.085798 -15.460501 1.840815 0.000000 
52.852200 87.606600 5.239700 -1.004413 -2.826357 -91.194689 -6.503092 -4.710337 -4.030666 -0.000000 15.872548 -0.000000 -0.000000 4.434300 7.770502 -0.000000 -1.389269 0.000000 -1.369083 -1.710737 -4.925757 -0.000000 17.592520 -0.000000 -0.000000 0.412345 -1.956305 -0.000000 -29.543033 0.000000 -5.404258 1.609179 0.201612 17.118014 23.831238 -1.363617 3.954072 -0.000000 4.046734 83.712757 -5.552510 68.490511 0.000000 -12.777356 -59.825196 11.270844 0.839170 -0.000000 -3.812735 -0.000000 -1.958742 -79.524188 4.908760 -66.960165 0.000001 -22.158877 40.609464 -14.667222 1.568547 0.000000 
52.748300 87.601800 5.363800 -1.025725 -2.808384 -91.275555 -6.567583 -4.569926 -3.951622 0.000000 15.777441 -0.000000 -0.000000 4.361980 7.799572 0.000000 -1.385932 0.000000 -1.411029 -1.616378 -4.799185 -0.000000 17.546000 -0.000000 0.000000 0.427275 -2.074737 -0.000000 -29.543358 -0.000000 -5.299315 1.637863 0.180100 16.803291 23.896561 -0.859091 3.850175 -0.000000 4.245390 83.207031 -5.628646 67.973968 0.000001 -12.857780 -59.187291 12.363639 1.091769 0.000000 -3.609299 -0.000000 -2.230620 -79.449274 4.493416 -67.095625 -0.000001 -22.256444 40.140461 -14.925243 1.655634 0.000000 
52.635200 87.612600 5.504300 -0.961314 -2.794900 -91.408576 -6.668092 -4.364064 -4.098204 -0.000000 15.419285 -0.000000 0.000000 4.320027 8.067770 -0.000000 -1.382005 -0.000000 -1.462194 -1.562070 -4.608378 -0.000000 17.408083 0.000000 -0.000000 0.484933 -2.097454 -0.000000 -29.544222 0.000000 -5.124701 1.543509 0.220524 16.432821 24.079231 -0.575761 3.435101 0.000000 4.164893 82.939412 -5.327994 67.474936 -0.000000 -13.027854 -58.741798 12.506071 0.898105 0.000000 -3.392534 -0.000000 -2.481556 -79.443136 4.038490 -67.292692 -0.000001 -22.119196 39.781165 -14.778069 1.605272 -0.000000 
